<svg height="480pt" viewBox="0 -16 480 480" width="480pt" xmlns="http://www.w3.org/2000/svg"><path d="m24 8h192c8.835938 0 16 7.164062 16 16v256h-224v-256c0-8.835938 7.164062-16 16-16zm0 0" fill="#75c1ff"/><path d="m8 280h224v64c0 8.835938-7.164062 16-16 16h-192c-8.835938 0-16-7.164062-16-16zm0 0" fill="#d6d6d6"/><path d="m184 248h272c8.835938 0 16 7.164062 16 16v160c0 8.835938-7.164062 16-16 16h-272c-8.835938 0-16-7.164062-16-16v-160c0-8.835938 7.164062-16 16-16zm0 0" fill="#efefef"/><path d="m224 296h24c8.835938 0 16 7.164062 16 16v24c0 8.835938-7.164062 16-16 16h-24c-8.835938 0-16-7.164062-16-16v-24c0-8.835938 7.164062-16 16-16zm0 0" fill="#ffd04a"/><path d="m16 24c.003906-4.414062 3.585938-7.996094 8-8h192c4.414062.003906 7.996094 3.585938 8 8v200h16v-200c-.015625-13.25-10.75-23.984375-24-24h-192c-13.25.015625-23.984375 10.75-24 24v320c.015625 13.25 10.75 23.984375 24 24h120v-16h-120c-4.414062-.003906-7.996094-3.585938-8-8v-56h128v-16h-128zm0 0"/><path d="m136 320c0 8.835938-7.164062 16-16 16s-16-7.164062-16-16 7.164062-16 16-16 16 7.164062 16 16zm0 0"/><path d="m56 312h24v16h-24zm0 0"/><path d="m104 32h32v16h-32zm0 0"/><path d="m456 240h-272c-13.25.015625-23.984375 10.75-24 24v160c.015625 13.25 10.75 23.984375 24 24h272c13.25-.015625 23.984375-10.75 24-24v-160c-.015625-13.25-10.75-23.984375-24-24zm8 184c-.003906 4.414062-3.585938 7.996094-8 8h-272c-4.414062-.003906-7.996094-3.585938-8-8v-160c.003906-4.414062 3.585938-7.996094 8-8h272c4.414062.003906 7.996094 3.585938 8 8zm0 0"/><path d="m272 336v-24c-.015625-13.25-10.75-23.984375-24-24h-24c-13.25.015625-23.984375 10.75-24 24v24c.015625 13.25 10.75 23.984375 24 24h24c13.25-.015625 23.984375-10.75 24-24zm-56 0v-24c.003906-4.414062 3.585938-7.996094 8-8h24c4.414062.003906 7.996094 3.585938 8 8v24c-.003906 4.414062-3.585938 7.996094-8 8h-24c-4.414062-.003906-7.996094-3.585938-8-8zm0 0"/><path d="m432 288h16v16h-16zm0 0"/><path d="m328 288h88v16h-88zm0 0"/><path d="m296 288h16v16h-16zm0 0"/><path d="m432 320h16v16h-16zm0 0"/><path d="m328 320h88v16h-88zm0 0"/><path d="m296 320h16v16h-16zm0 0"/><path d="m432 352h16v16h-16zm0 0"/><path d="m328 352h88v16h-88zm0 0"/><path d="m296 352h16v16h-16zm0 0"/><path d="m200 384h16v16h-16zm0 0"/><path d="m432 384h16v16h-16zm0 0"/><path d="m232 384h184v16h-184zm0 0"/></svg>